<?xml version="1.0" encoding="UTF-8"?> <svg xmlns="http://www.w3.org/2000/svg" viewBox="0 0 32 32"><defs><style>.cls-1{fill:#fff;}.cls-2{fill:#263872;}</style></defs><title>favicon-isoglass_1</title><g id="Layer_2" data-name="Layer 2"><g id="Layer_1-2" data-name="Layer 1"><g id="Layer_1-2-2" data-name="Layer 1-2"><rect class="cls-1" width="32" height="32" rx="4.78"></rect><path class="cls-2" d="M17,30V26l.11.1,1.6,1.6a1,1,0,0,1,.28.67V30Z"></path><path class="cls-2" d="M30,15H26a.47.47,0,0,1,.09-.1l1.57-1.58a1,1,0,0,1,.75-.31H30Z"></path><path class="cls-2" d="M22.34,8.27v2.29a1.13,1.13,0,0,1-.35.85l-3.5,3.5a.24.24,0,0,0-.08.09H26l-.07.08L24.26,16.7a1,1,0,0,1-.73.3H18.42l5.32,5.31,0,0h-2.3a1.13,1.13,0,0,1-.83-.35l-3.5-3.5a.75.75,0,0,1-.09-.09V26s-.07,0-.08-.06l-1.64-1.63a1,1,0,0,1-.29-.76V18.43L9.68,23.74l0,0a.34.34,0,0,1,0-.1V21.43a1.13,1.13,0,0,1,.36-.86l3.49-3.48.08-.09H6s.05-.07.07-.08c.54-.55,1.08-1.09,1.63-1.63a1,1,0,0,1,.7-.29h5.15L8.25,9.67v0h2.29a1.13,1.13,0,0,1,.85.35l3.5,3.5a.36.36,0,0,0,.09.08V6l.13.12L16.68,7.7a1,1,0,0,1,.31.74v5.13L22.3,8.25Z"></path><path class="cls-2" d="M22.35,8.17V5.84a1,1,0,0,1,.32-.76l1-1,.1-.09,1.39,1.38Z"></path><path class="cls-2" d="M5.4,6.85,8.17,9.63H5.83a1,1,0,0,1-.75-.32c-.32-.33-.65-.65-1-1L4,8.25Z"></path><path class="cls-2" d="M2,19V17H6l0,.07L4.3,18.69a1,1,0,0,1-.71.3Z"></path><path class="cls-2" d="M23.79,22.35h2.35a1,1,0,0,1,.75.32l1,1,0,.05-1.39,1.4Z"></path><path class="cls-2" d="M15,6l-.79-.8-.89-.89a1,1,0,0,1-.3-.73V2h1.87C15,2,15,2,15,2.13V5.92A.54.54,0,0,0,15,6Z"></path><path class="cls-2" d="M6.85,26.59l2.77-2.78v2.33a1,1,0,0,1-.31.76l-1,1L8.25,28Z"></path></g></g></g></svg> 