<?xml version="1.0" encoding="UTF-8"?> <svg xmlns="http://www.w3.org/2000/svg" viewBox="0 0 226.77 226.77"><defs><style>.cls-1{fill:#fff;}.cls-2{fill:#263872;}</style></defs><title>Asset 8</title><g id="Layer_2" data-name="Layer 2"><g id="Layer_1-2" data-name="Layer 1"><rect class="cls-1" width="226.77" height="226.77" rx="33.9"></rect><path class="cls-2" d="M120.41,212.49V184.2l.78.71,11.32,11.33a6.58,6.58,0,0,1,2,4.72c0,3.85,0,7.69,0,11.53Z"></path><path class="cls-2" d="M212.45,106.21h-28.2c.27-.31.43-.52.62-.71L196,94.33a7.26,7.26,0,0,1,5.35-2.21c3.69,0,7.38,0,11.07,0Z"></path><path class="cls-2" d="M158.3,58.6c0,.25,0,.5,0,.75,0,5.16,0,10.32,0,15.49a8,8,0,0,1-2.48,6q-12.44,12.36-24.81,24.79c-.16.16-.31.34-.58.64h53.46c-.23.3-.33.47-.46.6q-5.74,5.76-11.5,11.5a7,7,0,0,1-5.18,2.08H130.52l37.69,37.65-.14.26c-.26,0-.53,0-.79,0-5.16,0-10.33,0-15.49,0a7.89,7.89,0,0,1-5.89-2.44q-12.37-12.43-24.79-24.81c-.18-.18-.37-.35-.67-.63V184c-.28-.22-.44-.32-.57-.44q-5.79-5.78-11.56-11.56a7.34,7.34,0,0,1-2.09-5.41v-36L68.63,168.23l-.26-.14a5.53,5.53,0,0,1-.07-.7c0-5.16,0-10.33,0-15.49a8.15,8.15,0,0,1,2.6-6.14q12.39-12.3,24.7-24.68c.16-.16.3-.33.56-.63H42.69c.22-.28.32-.44.44-.57q5.77-5.79,11.56-11.56a6.88,6.88,0,0,1,5-2H95.36c.22,0,.45,0,.83,0L58.46,68.52l.09-.2h.82c5.14,0,10.28,0,15.42,0a7.94,7.94,0,0,1,6,2.45Q93.16,83.23,105.6,95.63c.16.16.34.3.65.57V42.65c.42.4.67.63.92.88l11.06,11.06a7.14,7.14,0,0,1,2.15,5.23q0,17.66,0,35.32v1l37.67-37.7Z"></path><path class="cls-2" d="M158.4,57.91v-.66c0-5.29,0-10.58,0-15.87A7.18,7.18,0,0,1,160.62,36c2.34-2.32,4.66-4.67,7-7,.23-.24.48-.46.69-.67l9.83,9.83Z"></path><path class="cls-2" d="M38.27,48.54,57.92,68.22c-.2,0-.45,0-.7,0-5.29,0-10.58,0-15.87,0A7.14,7.14,0,0,1,36,66c-2.3-2.34-4.63-4.64-7-7a5.46,5.46,0,0,0-.77-.54Z"></path><path class="cls-2" d="M14.32,134.54v-14h28a5.32,5.32,0,0,1-.4.52L30.45,132.47a6.84,6.84,0,0,1-5,2.07H14.32Z"></path><path class="cls-2" d="M168.62,158.42h1.06c5.19,0,10.38,0,15.57,0a7.15,7.15,0,0,1,5.34,2.21c2.43,2.46,4.89,4.89,7.33,7.34a4,4,0,0,1,.31.34l-9.86,9.89Z"></path><path class="cls-2" d="M106.14,42.5l-5.58-5.64q-3.14-3.15-6.3-6.3a7.15,7.15,0,0,1-2.16-5.22v-11c.31,0,.56-.07.81-.07,4.15,0,8.31,0,12.47,0,.62,0,.85.17.85.83q0,13.42,0,26.87C106.22,42.08,106.19,42.17,106.14,42.5Z"></path><path class="cls-2" d="M48.53,188.4l19.66-19.66c0,.26,0,.53,0,.8,0,5.24,0,10.48,0,15.71A7.12,7.12,0,0,1,66,190.6c-2.35,2.32-4.67,4.66-7,7a4.27,4.27,0,0,0-.54.79Z"></path></g></g></svg> 