<?xml version="1.0" encoding="UTF-8"?> <svg xmlns="http://www.w3.org/2000/svg" viewBox="0 0 226.67 226.77"><defs><style>.cls-1{fill:#263872;}</style></defs><title>Asset 5</title><g id="Layer_2" data-name="Layer 2"><g id="Layer_1-2" data-name="Layer 1"><path class="cls-1" d="M121.37,226.77V194.4c.4.36.65.58.89.81q6.48,6.48,13,13a7.48,7.48,0,0,1,2.3,5.4c0,4.39,0,8.79,0,13.19Z"></path><path class="cls-1" d="M226.67,105.17H194.4c.32-.35.5-.59.71-.8l12.78-12.78A8.26,8.26,0,0,1,214,89.06c4.22,0,8.44,0,12.67,0Z"></path><path class="cls-1" d="M164.72,50.71c0,.28,0,.57,0,.85,0,5.91,0,11.82,0,17.73a9,9,0,0,1-2.84,6.8q-14.22,14.16-28.38,28.37c-.19.18-.35.38-.67.73h61.17c-.27.34-.38.53-.53.68Q187,112.46,180.37,119a8,8,0,0,1-5.92,2.38H132.94l43.12,43.07-.17.3c-.3,0-.6.05-.9.05-5.9,0-11.81,0-17.72,0a9,9,0,0,1-6.74-2.8q-14.15-14.22-28.36-28.38l-.77-.72v61.25c-.32-.24-.5-.36-.65-.5q-6.61-6.62-13.23-13.22a8.43,8.43,0,0,1-2.39-6.19q0-20.09,0-40.15v-1l-43,43-.3-.16a7.2,7.2,0,0,1-.07-.8c0-5.91,0-11.82,0-17.72a9.32,9.32,0,0,1,3-7Q78.9,136.36,93,122.19c.18-.18.34-.38.64-.72H32.45a7.25,7.25,0,0,1,.51-.66q6.6-6.61,13.22-13.22a7.91,7.91,0,0,1,5.76-2.33l32.44,0h8.33c.26,0,.51,0,.94,0Q72,83.5,50.49,62.06l.11-.23h.94c5.88,0,11.76,0,17.63,0A9.11,9.11,0,0,1,76,64.62q14.18,14.26,28.42,28.45c.19.19.39.35.74.66V32.46c.49.46.78.73,1.06,1l12.66,12.66a8.12,8.12,0,0,1,2.46,6V93.69l43.11-43.14Z"></path><path class="cls-1" d="M164.83,49.92v-.76c0-6,0-12.1,0-18.15a8.22,8.22,0,0,1,2.55-6.11c2.68-2.65,5.34-5.34,8-8,.26-.27.54-.53.79-.76l11.24,11.24Z"></path><path class="cls-1" d="M27.4,39.2,49.88,61.71c-.24,0-.52,0-.8,0-6,0-12.11,0-18.16,0a8.13,8.13,0,0,1-6.1-2.55c-2.63-2.67-5.3-5.3-8-7.94a5.45,5.45,0,0,0-.87-.62Z"></path><path class="cls-1" d="M0,137.59V121.53H32a6.11,6.11,0,0,1-.46.6l-13.1,13.09a7.91,7.91,0,0,1-5.74,2.37H0Z"></path><path class="cls-1" d="M176.52,164.9h1.22c5.94,0,11.87,0,17.81,0a8.2,8.2,0,0,1,6.11,2.52c2.78,2.81,5.59,5.6,8.38,8.4a5.29,5.29,0,0,1,.36.39l-11.28,11.31Z"></path><path class="cls-1" d="M105,32.28l-6.38-6.44-7.2-7.21a8.09,8.09,0,0,1-2.47-6q0-5.81,0-11.61V.1A8.6,8.6,0,0,1,89.9,0c4.76,0,9.51,0,14.27,0,.72,0,1,.2,1,1q0,15.38,0,30.75C105.14,31.81,105.1,31.92,105,32.28Z"></path><path class="cls-1" d="M39.14,199.21l22.49-22.5c0,.3,0,.61,0,.92,0,6,0,12,0,18a8.11,8.11,0,0,1-2.51,6.11c-2.69,2.66-5.35,5.34-8,8a6,6,0,0,0-.61.9Z"></path></g></g></svg> 