<?xml version="1.0" encoding="UTF-8"?> <svg xmlns="http://www.w3.org/2000/svg" viewBox="0 0 307.2 111.36"><defs><style>.cls-1{fill:#243670;}</style></defs><title>Logo 2</title><g id="Layer_2" data-name="Layer 2"><g id="Layer_1-2" data-name="Layer 1"><path class="cls-1" d="M266.4,0V10.39l-.28.16L264.3,8.79,264,8.45c-3.52-3.56-3-2.4-3-7.26,0-.4,0-.79-.07-1.19Z"></path><path class="cls-1" d="M307.2,35.28H296.55c.35-.43.54-.69.76-.92s.44-.46.67-.69c3.8-3.83,3.8-3.83,9.22-3.67Z"></path><path class="cls-1" d="M0,54.48c1.55,0,3.1-.11,4.64,0,.27,0,.73.58.73.9.06,3.1,0,6.2-.1,9.4C3.44,63,1.41,61.43,0,59.28Z"></path><path class="cls-1" d="M178.8,111.36V100.73l.27-.22.72.66a22.31,22.31,0,0,1,3.74-.49,3.09,3.09,0,0,1,1.84,1.19,4.49,4.49,0,0,1-.06,5.44c-1.23,1.46-2.93,1.55-5.55.21v3.84Zm6.36-6.73c0-2-1-3.17-2.77-3.16s-2.67,1.2-2.66,3.14a2.72,2.72,0,1,0,5.43,0Z"></path><path class="cls-1" d="M126.45,59.18V55.79h5.3v1.29q0,17.27,0,34.54a20,20,0,0,1-1.24,7.52c-1.93,4.81-5.66,7.58-10.54,8.75a25.18,25.18,0,0,1-14.53-.75,15.06,15.06,0,0,1-9.32-9.06,8.88,8.88,0,0,1-.32-1.15,1.5,1.5,0,0,1,0-.46c1.83,0,3.66,0,5.49,0a1,1,0,0,1,.71.47c2.36,5.34,6.9,6.74,12.19,6.67a15,15,0,0,0,6.93-1.65,9.2,9.2,0,0,0,4.94-7.24c.33-2.3.31-4.65.45-7l-.35-.12c-.27.19-.55.37-.82.57-7.64,6-20.88,5.56-27.33-2.34a18.81,18.81,0,0,1-4.15-13.65c.47-7,3.41-12.82,9.93-15.84a20.41,20.41,0,0,1,21.47,1.95ZM99.5,73.36c0,4.2,1.06,8.09,4.34,10.9,3.93,3.37,8.58,3.7,13.46,2.48a11.11,11.11,0,0,0,8.54-8.48,17.75,17.75,0,0,0,.43-7.25c-.72-4.9-3.1-8.69-7.77-10.6s-9.45-1.76-13.68,1.32C100.93,64.55,99.48,68.66,99.5,73.36Z"></path><path class="cls-1" d="M286.29,17.45c0,2.15.08,4.3-.05,6.44a3.33,3.33,0,0,1-1.05,1.8Q281,30,276.7,34.16a3.92,3.92,0,0,1-1.17.6l.42.54h19.82l.18.31c-1.69,1.6-3.32,3.25-5.08,4.76a3.19,3.19,0,0,1-1.84.34c-3.88,0-7.76,0-11.64,0H275.8L290,54.78l-.25.32c-2.28,0-4.57.06-6.85,0-.5,0-1-.58-1.45-1q-4.14-4.08-8.24-8.22a8.27,8.27,0,0,1-.84-1.3l-.51.33V64.5c-1.69-1.54-3.43-3-5-4.65a2.92,2.92,0,0,1-.35-1.82c0-5.24,0-10.48,0-15.72V40.75h-24l-.16-.3c1.66-1.58,3.27-3.21,5-4.71a3,3,0,0,1,1.83-.38c4,0,8,0,12,0,.38,0,.76,0,1.16-.06l-14-14,.22-.46h3c5,.08,3.57-.61,7.16,2.93,2.25,2.22,4.48,4.47,6.72,6.69.27.28.56.54,1.07,1V11.4c1.68,1.56,3.36,3,4.88,4.63a3.25,3.25,0,0,1,.47,2c0,4,0,7.92,0,11.88,0,.42.05.83.08,1.48l14.05-14.24Z"></path><path class="cls-1" d="M182.13,61V54.46h5.26V90.82h-5.15v-5c-.3.14-.46.17-.54.26-3.51,4.53-8.36,6.1-13.83,6.16a17.78,17.78,0,0,1-17.46-12.55c-2.73-8.63.55-19.79,10-23.88,6.77-2.91,15.2-1.54,19.93,3.22C180.91,59.61,181.41,60.22,182.13,61Zm-13.35-1.55c-8.1,0-13.43,5.76-13.66,14.37-.19,6.9,6.11,13.37,13.41,13.41a13.48,13.48,0,0,0,13.68-13.11C182.16,65.33,176.91,59.5,168.78,59.47Z"></path><path class="cls-1" d="M88.13,76.12a16.64,16.64,0,0,1-8.54,13.61c-9.84,5.85-26.07,2.09-27.76-13.91A21.43,21.43,0,0,1,53.71,64c3.13-6.47,9.81-10.15,17.37-9.61C81.59,55.16,88.21,62.55,88.13,76.12Zm-31-2.19c.11.79.21,2.2.52,3.55,1.36,5.79,5.6,9.45,11.32,9.86A12.07,12.07,0,0,0,81.67,79.4a17.36,17.36,0,0,0,.66-10A12.7,12.7,0,0,0,63,61.16C58.7,64,57.2,68.35,57.08,73.93Z"></path><path class="cls-1" d="M44.71,65.09c-1.63,0-3.18,0-4.72,0a.89.89,0,0,1-.6-.55c-.8-3.41-3.16-4.94-6.42-5.36a14.83,14.83,0,0,0-7.21.6,4.49,4.49,0,0,0-3.22,4.06,3.87,3.87,0,0,0,2.61,4.39c3.15,1.09,6.41,1.9,9.61,2.87A45.56,45.56,0,0,1,40.54,73c3.11,1.41,5.35,3.6,5.57,7.31.24,4-1,7.3-4.47,9.56-5,3.22-15.92,3.57-21.16-1.26a12.46,12.46,0,0,1-4.14-8.44c1.67,0,3.26,0,4.84,0a.89.89,0,0,1,.59.56c.82,4.25,3.73,6.18,7.7,6.75a15.25,15.25,0,0,0,8-.9,4.86,4.86,0,0,0,3.08-6.29,4.28,4.28,0,0,0-2-2.37c-2.72-1.12-5.55-2-8.36-2.84-2.28-.72-4.67-1.14-6.87-2-3.22-1.3-5.76-3.37-6-7.2-.39-5.36,2-9,7.19-10.61a19.79,19.79,0,0,1,11.36-.22C40.83,56.45,44.28,60.33,44.71,65.09Z"></path><path class="cls-1" d="M193,80.18c1.7,0,3.29,0,4.87,0,.2,0,.52.36.57.59.83,4.19,3.68,6.13,7.61,6.71a15.1,15.1,0,0,0,8.34-1,5,5,0,0,0,2.91-6.12,3.4,3.4,0,0,0-2.07-2.49c-2.76-1-5.56-1.91-8.37-2.79-2.24-.7-4.59-1.13-6.76-2-3.23-1.28-5.8-3.32-6.1-7.15-.42-5.48,2.06-9.17,7.33-10.74a19.08,19.08,0,0,1,11-.2c4.28,1.28,7.55,3.78,8.79,8.34.13.5.19,1,.32,1.72-1.68,0-3.26,0-4.84,0a.75.75,0,0,1-.53-.48c-.79-3.53-3.26-5-6.6-5.46a15.25,15.25,0,0,0-6.87.56,4.57,4.57,0,0,0-3.4,4.17,3.92,3.92,0,0,0,2.75,4.42c3.12,1.07,6.35,1.85,9.51,2.81a50.93,50.93,0,0,1,6.1,2.08c7.78,3.48,6,13.58.83,16.71S202.22,93.44,197,88.51A12.47,12.47,0,0,1,193,80.18Z"></path><path class="cls-1" d="M233.57,80.32c1.36,6.69,7.05,7.79,11.9,7.2a17.81,17.81,0,0,0,4.59-1.23A4.44,4.44,0,0,0,252.77,82a4.26,4.26,0,0,0-2.48-4.27c-2.93-1.58-6.19-2.07-9.35-2.91a40.22,40.22,0,0,1-6.89-2.34c-7.28-3.43-5.43-13-.55-15.91,4.27-2.54,14.24-3.71,19.73,1.52a11.12,11.12,0,0,1,3.5,7c-1.67,0-3.28,0-4.89,0-.18,0-.46-.32-.5-.53-.75-3.45-3.14-4.94-6.39-5.38a15.3,15.3,0,0,0-7.11.55,4.57,4.57,0,0,0-3.36,4.22,3.9,3.9,0,0,0,2.72,4.32c3.16,1.08,6.43,1.85,9.62,2.85a43.54,43.54,0,0,1,6.72,2.47c6.89,3.49,5.25,13,.49,16a19,19,0,0,1-10.78,2.65,16.44,16.44,0,0,1-10.14-3.12,12.63,12.63,0,0,1-4.84-8.82Z"></path><path class="cls-1" d="M143.9,92.21h-5.13V40.9h5.13Z"></path><path class="cls-1" d="M5.57,92.21V65.7c1.61,1.53,3.24,3,4.8,4.61a2.09,2.09,0,0,1,.4,1.34c0,6.68,0,13.35,0,20a3.91,3.91,0,0,1-.1.53Z"></path><path class="cls-1" d="M238.38,99.87q-1.24,3.81-2.47,7.62c-.18.54-.3,1.22-1,1a1.67,1.67,0,0,1-.9-1c-.92-2.77-1.77-5.56-2.63-8.34-.13-.41-.23-.82-.35-1.24.88-.34,1.17,0,1.37.72.67,2.26,1.38,4.5,2.07,6.75.12.38.25.74.48,1.42.25-.65.42-1,.55-1.43.7-2.16,1.36-4.34,2.11-6.49a1.87,1.87,0,0,1,1-1.07c.78-.26.84.5,1,1,.71,2.17,1.4,4.33,2.1,6.5a2.44,2.44,0,0,0,.7,1.17l1.26-4c.4-1.29.76-2.61,1.22-3.88.14-.38.6-.64.91-1l.33.26a5.28,5.28,0,0,1-.15.9c-.91,2.94-1.81,5.88-2.78,8.79-.13.38-.64.9-1,.89s-.81-.53-.94-.92c-.76-2.14-1.42-4.32-2.13-6.48-.13-.4-.29-.79-.43-1.19Z"></path><path class="cls-1" d="M286.42,16.55c0-2.15,0-4.25,0-6.35a2.57,2.57,0,0,1,.64-1.5c1-1.07,2.09-2,3.18-3.09l3.45,3.62Z"></path><path class="cls-1" d="M240.25,13.37l7.18,7.22c-2.18,0-4.47.09-6.74-.06-.64,0-1.26-.77-1.83-1.25-.82-.69-1.58-1.45-2.42-2.22Z"></path><path class="cls-1" d="M231.19,46V40.9h10.38c-.26.31-.45.57-.67.8a16.2,16.2,0,0,0-2,2C236.93,46.61,234.1,46.21,231.19,46Z"></path><path class="cls-1" d="M277.18,76H272V65.35c1.75,1.83,3.37,3.4,4.8,5.12.41.49.33,1.43.37,2.17C277.22,73.7,277.18,74.78,277.18,76Z"></path><path class="cls-1" d="M301.69,59.06c-1.32,1.31-2.5,2.5-4,4l-7.3-7.54c2.62,0,4.9-.07,7.18.05.53,0,1.05.65,1.52,1.07C300,57.38,300.8,58.2,301.69,59.06Z"></path><path class="cls-1" d="M152.62,105.24c.29.25.75.44.86.76.67,1.83,4.37,1.85,5.43.85a1.49,1.49,0,0,0-.34-2.49,22.62,22.62,0,0,0-2.7-.93,13.43,13.43,0,0,1-2-.76,2.41,2.41,0,0,1-.64-3.77c1.46-1.7,5.29-1.46,6.5.43a5.55,5.55,0,0,1,.45,1.18l-.28.3c-.3-.22-.78-.37-.89-.66-.59-1.6-3.81-1.63-4.8-.78a1.39,1.39,0,0,0,.23,2.45,22.75,22.75,0,0,0,2.49.84,13.32,13.32,0,0,1,2.24.82,2.53,2.53,0,0,1,.25,4.3c-1.39,1-4.64,1-5.92-.09a9.51,9.51,0,0,1-1.34-2Z"></path><path class="cls-1" d="M176,107.65a3.82,3.82,0,0,1-5.15-.22,4.44,4.44,0,0,1-.1-5.71c1.29-1.5,3.41-1.57,5.35-.25l1.07-1,.29.25v7.92Zm.45-3.12c0-1.86-1.08-3-2.76-3a3,3,0,0,0,0,6.07A2.71,2.71,0,0,0,176.46,104.53Z"></path><path class="cls-1" d="M194.81,104.94H188.4A2.43,2.43,0,0,0,190,107.3a2.79,2.79,0,0,0,3-.38,14,14,0,0,1,1.48-.91c-.44,2-2.15,2.82-4.23,2.43a3.94,3.94,0,0,1-3-4.64,3.72,3.72,0,0,1,4.39-3.23C193.68,100.75,195,102.43,194.81,104.94Zm-1.09-1.07a2.38,2.38,0,0,0-1.54-2.16,2.6,2.6,0,0,0-2.91.42c-.48.45-1.05,1-.73,1.74Z"></path><path class="cls-1" d="M214.08,104.57a3.84,3.84,0,1,1-3.75-4A3.67,3.67,0,0,1,214.08,104.57Zm-6.58,0c0,1.86,1.1,3,2.8,3a2.73,2.73,0,0,0,2.72-3,2.76,2.76,0,0,0-2.76-3.08C208.57,101.48,207.5,102.67,207.5,104.55Z"></path><path class="cls-1" d="M163,101.67a12,12,0,0,1,2.43-.84,2.69,2.69,0,0,1,3,2.44,40.56,40.56,0,0,1,.08,4.55c0,.22-.32.44-.49.66-.16-.26-.45-.51-.47-.77,0-1.16,0-2.32,0-3.48,0-1.57-.82-2.48-2.15-2.5a2.27,2.27,0,0,0-2.36,2.34c-.08,1.15,0,2.32-.06,3.48a2.81,2.81,0,0,1-.44.93c-.17-.29-.49-.57-.49-.86q-.06-4.5,0-9c0-.28.26-.57.4-.85.19.28.52.55.54.84C163,99.63,163,100.66,163,101.67Z"></path><path class="cls-1" d="M221.71,108.55l-1-.92a8.09,8.09,0,0,1-1.7.8,3.1,3.1,0,0,1-3.86-3c-.09-1.55,0-3.11,0-4.67.82-.4,1.13-.15,1.11.69,0,1.2,0,2.4,0,3.59a2.28,2.28,0,0,0,2.16,2.53,2.4,2.4,0,0,0,2.6-2.39c.08-1.24,0-2.48.06-3.72,0-.3.32-.58.49-.87.18.28.52.57.52.86,0,2.27,0,4.54,0,6.82Z"></path><path class="cls-1" d="M252.57,101.44a7.61,7.61,0,0,1,1.74-.84,3.08,3.08,0,0,1,3.83,2.94,32.47,32.47,0,0,1,0,4.3c0,.27-.46.53-.71.79l-.37-.21c0-1.38,0-2.77,0-4.15,0-1.78-.82-2.76-2.27-2.78s-2.5,1.06-2.53,2.85c0,1.11,0,2.23,0,3.35,0,.27-.29.52-.46.79-.19-.28-.54-.55-.55-.83-.05-2-.05-3.91,0-5.86a3.82,3.82,0,0,1,.45-1.18Z"></path><path class="cls-1" d="M207.62,97.8c-1.16,1.67-2.13,3.18-3.21,4.6a4.27,4.27,0,0,0-.94,3.1c.07.94,0,1.9,0,2.85l-.3.24-.74-.74s0-.08,0-.12c.72-3.44-1.15-5.93-3.07-8.41-.33-.42-.61-.89-.92-1.34l.3-.37a5,5,0,0,1,1.22.84c1,1.33,1.93,2.72,2.94,4.16,1.28-1.68,2.47-3.26,3.7-4.79C206.71,97.68,207.12,97.8,207.62,97.8Z"></path><path class="cls-1" d="M224.85,100.78l.07,1.18,2.69-1.63.43.41c-.19.3-.32.77-.58.88a3.36,3.36,0,0,0-2.56,3.43c-.05.92,0,1.84,0,2.75,0,.23-.28.45-.43.68-.2-.23-.55-.46-.56-.7,0-2.15-.05-4.3,0-6.45,0-.28.41-.56.63-.84Z"></path><path class="cls-1" d="M249.17,104.46c0,1.12,0,2.24,0,3.35,0,.23-.31.45-.47.67-.16-.22-.46-.44-.46-.66q-.06-3.3,0-6.6c0-.22.29-.43.45-.65.17.21.47.43.48.65C249.2,102.3,249.17,103.38,249.17,104.46Z"></path><path class="cls-1" d="M248.64,100.25c-.25-.59-.46-.87-.43-1.12s.35-.36.54-.54c.18.24.45.47.49.73S249,99.74,248.64,100.25Z"></path></g></g></svg> 