<svg xmlns="http://www.w3.org/2000/svg" viewBox="0 0 340.16 120.27"><defs><style>.cls-1{fill:#fff;}</style></defs><title>Logo White</title><g id="Layer_2" data-name="Layer 2"><g id="Layer_1-2" data-name="Layer 1"><path class="cls-1" d="M295,0V11.5l-.31.18-2-1.94-.37-.38c-3.9-3.94-3.28-2.66-3.34-8,0-.44-.05-.88-.08-1.32Z"></path><path class="cls-1" d="M340.16,39.06h-11.8c.39-.47.6-.75.84-1s.5-.5.74-.75c4.21-4.25,4.21-4.25,10.22-4.07Z"></path><path class="cls-1" d="M0,60.32c1.71,0,3.43-.11,5.14,0,.3,0,.8.64.81,1,.06,3.43,0,6.87-.11,10.42-2-2-4.27-3.66-5.84-6Z"></path><path class="cls-1" d="M140,65.53V61.77h5.87V63.2q0,19.13,0,38.25a22,22,0,0,1-1.38,8.32c-2.13,5.33-6.26,8.4-11.67,9.69a27.91,27.91,0,0,1-16.08-.82,16.69,16.69,0,0,1-10.32-10,9.34,9.34,0,0,1-.36-1.28,1.85,1.85,0,0,1,0-.51c2,0,4.06,0,6.09,0a1,1,0,0,1,.78.51c2.61,5.91,7.64,7.46,13.49,7.39a16.93,16.93,0,0,0,7.69-1.82,10.2,10.2,0,0,0,5.46-8c.37-2.55.35-5.16.5-7.74l-.38-.13c-.31.21-.62.41-.91.64-8.47,6.58-23.12,6.15-30.27-2.6A20.85,20.85,0,0,1,104,80c.52-7.79,3.78-14.2,11-17.54,8.15-3.77,16.27-3.13,23.77,2.16Zm-29.84,15.7c0,4.65,1.17,9,4.8,12.07,4.36,3.73,9.5,4.09,14.9,2.74a12.3,12.3,0,0,0,9.46-9.39,19.39,19.39,0,0,0,.47-8c-.79-5.43-3.43-9.63-8.59-11.74s-10.47-2-15.16,1.46C111.76,71.48,110.15,76,110.18,81.23Z"></path><path class="cls-1" d="M317,19.32c0,2.38.09,4.76-.05,7.13a3.69,3.69,0,0,1-1.16,2c-3.1,3.17-6.24,6.28-9.4,9.39a4.82,4.82,0,0,1-1.3.66l.46.6H327.5l.2.34C325.83,41.2,324,43,322.08,44.7a3.52,3.52,0,0,1-2,.38c-4.3,0-8.59,0-12.89,0h-1.76l15.69,15.57-.28.35c-2.53,0-5.06.07-7.59,0-.55,0-1.14-.63-1.6-1.09q-4.59-4.51-9.12-9.1a8,8,0,0,1-.93-1.45l-.56.38V71.42c-1.88-1.71-3.81-3.35-5.59-5.15-.4-.41-.38-1.33-.39-2,0-5.8,0-11.6,0-17.4V45.13h-26.6l-.18-.34c1.84-1.75,3.62-3.55,5.54-5.21a3.4,3.4,0,0,1,2-.43c4.43,0,8.86,0,13.29,0,.42,0,.84,0,1.28-.06L274.84,23.6l.24-.5c1.1,0,2.21,0,3.31,0,5.58.09,3.95-.68,7.93,3.25,2.5,2.45,5,4.94,7.44,7.41.3.3.62.59,1.19,1.12V12.62c1.85,1.74,3.72,3.35,5.4,5.13a3.63,3.63,0,0,1,.53,2.25c0,4.38,0,8.77,0,13.15,0,.46,0,.93.08,1.64L316.54,19Z"></path><path class="cls-1" d="M201.67,67.57V60.3h5.82v40.26H201.8v-5.5c-.34.16-.52.19-.6.29-3.89,5-9.26,6.75-15.32,6.82a19.69,19.69,0,0,1-19.33-13.89c-3-9.57.61-21.92,11.1-26.45,7.5-3.23,16.83-1.71,22.07,3.57C200.32,66,200.87,66.68,201.67,67.57Zm-14.79-1.72c-9,0-14.86,6.38-15.12,15.91-.21,7.65,6.77,14.81,14.86,14.85A14.93,14.93,0,0,0,201.76,82.1C201.7,72.34,195.89,65.88,186.88,65.85Z"></path><path class="cls-1" d="M97.58,84.28c-.06,4.67-2.7,11.07-9.45,15.08-10.89,6.47-28.87,2.32-30.74-15.4A23.65,23.65,0,0,1,59.48,70.9c3.46-7.16,10.85-11.24,19.23-10.64C90.34,61.08,97.67,69.26,97.58,84.28ZM63.21,81.86a37.38,37.38,0,0,0,.57,3.93c1.51,6.42,6.2,10.47,12.54,10.93,6.52.46,11.75-2.76,14.12-8.8a19.42,19.42,0,0,0,.73-11.09A14.08,14.08,0,0,0,69.8,67.72C65,70.86,63.34,75.69,63.21,81.86Z"></path><path class="cls-1" d="M49.51,72.07c-1.81,0-3.52,0-5.23,0a1,1,0,0,1-.66-.61c-.89-3.78-3.51-5.47-7.11-5.94a16.67,16.67,0,0,0-8,.67A5,5,0,0,0,25,70.66a4.28,4.28,0,0,0,2.9,4.85c3.49,1.21,7.1,2.11,10.64,3.18a52.23,52.23,0,0,1,6.4,2.14c3.44,1.56,5.92,4,6.17,8.09.26,4.44-1.07,8.09-5,10.59-5.51,3.57-17.62,4-23.42-1.4a13.78,13.78,0,0,1-4.58-9.34c1.85,0,3.6,0,5.35,0a1,1,0,0,1,.65.62c.92,4.71,4.13,6.85,8.53,7.48a17.07,17.07,0,0,0,8.88-1c3-1.22,4.44-4,3.4-7a4.62,4.62,0,0,0-2.19-2.62c-3-1.24-6.13-2.18-9.24-3.15-2.53-.8-5.17-1.27-7.62-2.25-3.56-1.44-6.37-3.73-6.68-8-.42-5.93,2.26-10,8-11.74A22,22,0,0,1,39.72,61C45.21,62.5,49,66.8,49.51,72.07Z"></path><path class="cls-1" d="M213.67,88.78c1.88,0,3.64,0,5.4,0,.22,0,.57.39.62.65.92,4.63,4.08,6.78,8.43,7.42a16.65,16.65,0,0,0,9.24-1.1A5.53,5.53,0,0,0,240.58,89a3.79,3.79,0,0,0-2.29-2.76c-3.06-1.12-6.16-2.11-9.27-3.09-2.49-.78-5.08-1.26-7.49-2.21-3.57-1.42-6.42-3.67-6.75-7.91-.46-6.07,2.28-10.16,8.12-11.89a21.06,21.06,0,0,1,12.18-.23c4.74,1.42,8.36,4.19,9.73,9.24.15.55.21,1.12.36,1.91-1.87,0-3.62,0-5.36,0a.84.84,0,0,1-.6-.53c-.87-3.92-3.6-5.6-7.3-6.05a16.89,16.89,0,0,0-7.6.62,5.06,5.06,0,0,0-3.78,4.62,4.38,4.38,0,0,0,3.05,4.9c3.46,1.18,7,2,10.53,3.1A57.86,57.86,0,0,1,240.87,81c8.61,3.86,6.65,15,.92,18.5s-17.88,4-23.66-1.51A13.86,13.86,0,0,1,213.67,88.78Z"></path><path class="cls-1" d="M258.63,88.94c1.5,7.4,7.81,8.62,13.17,8a19.55,19.55,0,0,0,5.09-1.36,4.92,4.92,0,0,0,3-4.77A4.75,4.75,0,0,0,277.14,86c-3.25-1.74-6.85-2.29-10.35-3.21a44.84,44.84,0,0,1-7.63-2.6c-8.06-3.79-6-14.38-.61-17.61,4.72-2.82,15.77-4.11,21.84,1.68a12.28,12.28,0,0,1,3.88,7.76c-1.85,0-3.63,0-5.41,0-.2,0-.51-.36-.56-.59-.83-3.82-3.47-5.46-7.07-6a16.81,16.81,0,0,0-7.87.61,5,5,0,0,0-3.72,4.66,4.31,4.31,0,0,0,3,4.79c3.5,1.2,7.12,2,10.65,3.16a47.93,47.93,0,0,1,7.44,2.73c7.63,3.87,5.82,14.44.54,17.77a21.07,21.07,0,0,1-11.94,2.94,18.2,18.2,0,0,1-11.22-3.46,13.93,13.93,0,0,1-5.36-9.76Z"></path><path class="cls-1" d="M159.34,102.11h-5.68V45.29h5.68Z"></path><path class="cls-1" d="M6.17,102.11V72.75c1.78,1.69,3.58,3.36,5.31,5.11a2.28,2.28,0,0,1,.45,1.47c0,7.4,0,14.79,0,22.19a4.09,4.09,0,0,1-.12.59Z"></path><path class="cls-1" d="M317.15,18.32c0-2.38,0-4.7,0-7a2.8,2.8,0,0,1,.71-1.66c1.1-1.19,2.32-2.27,3.52-3.42,1.28,1.33,2.58,2.7,3.82,4Z"></path><path class="cls-1" d="M266,14.8l7.94,8c-2.41,0-4.94.1-7.46-.07-.71,0-1.39-.85-2-1.38-.91-.77-1.76-1.6-2.69-2.46Z"></path><path class="cls-1" d="M256,50.93V45.28h11.49c-.29.35-.5.64-.74.89a18.36,18.36,0,0,0-2.23,2.27C262.35,51.61,259.21,51.17,256,50.93Z"></path><path class="cls-1" d="M306.91,84.11h-5.74V72.36c1.94,2,3.73,3.76,5.32,5.67.45.54.36,1.58.41,2.4C307,81.61,306.91,82.8,306.91,84.11Z"></path><path class="cls-1" d="M334.05,65.39l-4.38,4.39-8.08-8.35c2.9,0,5.43-.07,8,.06.58,0,1.17.72,1.68,1.19C332.17,63.53,333.07,64.44,334.05,65.39Z"></path></g></g></svg>